<!DOCTYPE svg PUBLIC "-//W3C//DTD SVG 1.1//EN" "http://www.w3.org/Graphics/SVG/1.1/DTD/svg11.dtd">
<!-- Uploaded to: SVG Repo, www.svgrepo.com, Transformed by: SVG Repo Mixer Tools -->
<svg fill="#8509ff" version="1.1" id="Capa_1" xmlns="http://www.w3.org/2000/svg" xmlns:xlink="http://www.w3.org/1999/xlink" viewBox="-4.14 -4.14 49.66 49.66" xml:space="preserve" width="256px" height="256px">
<g id="SVGRepo_bgCarrier" stroke-width="0">
<path transform="translate(-4.14, -4.14), scale(1.551875)" d="M16,29.69067783188075C18.227646758012416,28.95948406250504,19.320171256682926,26.423032016018087,21.442589172860608,25.426840972118846C23.85664370730653,24.293765582786307,27.525871248787315,25.718863659522857,29.079644196735497,23.551536097889766C30.581765092726187,21.45625697548984,28.116945624795946,18.576729883404454,28.200760270934552,16C28.28852756174565,13.301753196638062,30.439229896784493,10.718797420772681,29.580312190201045,8.159403101308275C28.71112744492489,5.5694151634955436,26.11500853960995,3.9424879860880684,23.715817352291204,2.635812323910079C21.351284487923724,1.3480126843399136,18.670808857556775,0.42221823134060077,16.000000000000004,0.7631340930238366C13.436994185972544,1.0902894164443335,11.401987911167348,2.908931650719635,9.34337389096618,4.470385372163891C7.49102124856074,5.875390340811893,5.5138252057607495,7.27950097903373,4.593861128600642,9.414662652183317C3.7097214593302787,11.466678793253449,4.689451693334706,13.787756788158797,4.3756792126223445,15.999999999999998C3.9961481254313607,18.675872241615245,1.8721309450053316,21.146191406366757,2.559188997374365,23.76005585049278C3.2629442793948584,26.437443740346378,5.479530228007334,28.717609096194614,8.012269668746733,29.835154770889623C10.490878208796257,30.928815732865957,13.425947837793556,30.53557431121876,16,29.69067783188075" fill="#e0c2ff" strokewidth="0"/>
</g>
<g id="SVGRepo_tracerCarrier" stroke-linecap="round" stroke-linejoin="round"/>
<g id="SVGRepo_iconCarrier"> <g> <g> <path d="M40.897,16.601c-0.257-2.263-6.35,0-6.35,0l-0.359,3.22c-0.133-0.076-0.268-0.15-0.41-0.213l-1.539-6.715 c-0.564-3.197-2.977-5.552-6.494-5.431h-9.037c-0.055,0.375-0.143,0.738-0.252,1.093h9.899c2.053,0,3.934,1.321,4.448,3.502 l1.653,6.63c-0.104-0.003-0.207-0.013-0.312-0.013H12.978l0.005,6.463h11.873v1.445H12.984l0.001,0.422h11.751v1.448H12.985 l0.004,5.43h12.677v3.439c0,1.397,1.729,2.532,3.86,2.532s3.857-1.134,3.857-2.532v-3.837c1.821-0.688,3.089-2.193,3.089-3.944 v-6.153c0-1.36-0.768-2.571-1.957-3.366l6.382-0.345C40.897,19.676,41.153,18.862,40.897,16.601z M33.586,28.344H26.62v-3.312 h6.966V28.344z"/> <rect x="12.808" y="27.003" width="0.177" height="1.448"/> <rect x="12.929" y="25.137" width="0.055" height="1.445"/> <path d="M15.337,6.488C15.331,3.71,13.821,1.29,11.572,0v5.993L7.851,8.141L4.127,5.986V0c-2.245,1.29-3.758,3.71-3.76,6.488 c0,2.913,1.67,5.437,4.104,6.676v0.032v24.649c0,0.976,0.393,1.859,1.033,2.5c0.639,0.64,1.521,1.029,2.499,1.033 c1.944,0,3.524-1.578,3.531-3.532l-0.015-24.839C13.798,11.725,15.334,9.283,15.337,6.488z M8.781,39.409 c-0.526,0.528-1.382,0.528-1.912-0.001c-0.522-0.524-0.521-1.376,0.005-1.904c0.529-0.526,1.382-0.526,1.904-0.004 C9.307,38.029,9.308,38.882,8.781,39.409z"/> </g> <g> </g> <g> </g> <g> </g> <g> </g> <g> </g> <g> </g> <g> </g> <g> </g> <g> </g> <g> </g> <g> </g> <g> </g> <g> </g> <g> </g> <g> </g> </g> </g>
</svg>